# xmcd
#
# Track frame offsets:
#	150
#	11075
#	24225
#	33422
#	52220
#	68335
#
# Disc length: 1121 seconds
#
# Revision: 1
# Processed by: cddbd v1.5.1PL0 Copyright (c) Steve Scherf et al.
# Submitted via: audiograbber 1.82.02
#
DISCID=43045f06
DTITLE=Too Far Gone - Too Far Gone
DYEAR=1995
DGENRE=Country
TTITLE0=Against The Grain
TTITLE1=Don`t Rock The Jukebox
TTITLE2=Hello Trouble
TTITLE3=I Guess My Lady (Ain`t Comin` Tonight)
TTITLE4=Please, Please Baby
TTITLE5=Mercury Blues
EXTD=
EXTT0=
EXTT1=
EXTT2=
EXTT3=
EXTT4=
EXTT5=
PLAYORDER=
